<svg width="224" height="224" viewBox="0 0 224 224" fill="none" xmlns="http://www.w3.org/2000/svg">
  <rect width="224" height="224" fill="oklch(0.3184 0.0176 341.4465)"/>
  <g opacity="0.3">
    <path d="M112 74.6667C97.272 74.6667 85.3333 86.6053 85.3333 101.333V122.667C85.3333 137.395 97.272 149.333 112 149.333C126.728 149.333 138.667 137.395 138.667 122.667V101.333C138.667 86.6053 126.728 74.6667 112 74.6667Z" fill="oklch(0.7357 0.1641 34.7091)"/>
    <path d="M157.333 101.333H149.333V122.667C149.333 143.253 132.587 160 112 160C91.4133 160 74.6667 143.253 74.6667 122.667V101.333H66.6667V122.667C66.6667 146.96 84.44 167.467 108 170.453V181.333H93.3333V189.333H130.667V181.333H116V170.453C139.56 167.467 157.333 146.96 157.333 122.667V101.333Z" fill="oklch(0.7357 0.1641 34.7091)"/>
  </g>
  <text x="112" y="205" font-family="system-ui, -apple-system, sans-serif" font-size="10" fill="oklch(0.8378 0.0237 52.6346)" text-anchor="middle" opacity="0.5">No Image</text>
</svg>